<svg width="20" height="20" viewBox="0 0 20 20" fill="none" xmlns="http://www.w3.org/2000/svg">
<g clip-path="url(#clip0_57_385)">
<path fill-rule="evenodd" clip-rule="evenodd" d="M16.6666 0.833008C18.0474 0.833008 19.1666 1.9523 19.1666 3.33301V16.6663C19.1666 18.0471 18.0474 19.1663 16.6666 19.1663H3.33331C1.9526 19.1663 0.833313 18.0471 0.833313 16.6663V3.33301C0.833313 1.9523 1.9526 0.833008 3.33331 0.833008H16.6666ZM16.6666 2.49967C17.1269 2.49967 17.5 2.87277 17.5 3.33301V16.6663C17.5 17.1266 17.1269 17.4997 16.6666 17.4997H12.5V11.6663H14.2301C14.5888 11.6663 14.9072 11.4368 15.0207 11.0964L15.3899 9.98892C15.5248 9.58417 15.2236 9.16626 14.797 9.16626H12.5V7.49961C12.5 7.08294 12.9166 6.66627 13.3333 6.66627H15C15.4602 6.66627 15.8333 6.29317 15.8333 5.83294V5.26128C15.8333 4.9921 15.6614 4.75076 15.4011 4.68207C14.3087 4.3938 13.3333 4.3938 13.3333 4.3938C11.25 4.3938 9.99998 5.83294 9.99998 7.08294V9.16626H8.33331C7.87308 9.16626 7.49998 9.53934 7.49998 9.99959V10.8329C7.49998 11.2932 7.87307 11.6663 8.33331 11.6663H9.99998V17.4997H3.33331C2.87308 17.4997 2.49998 17.1266 2.49998 16.6663V3.33301C2.49998 2.87277 2.87308 2.49967 3.33331 2.49967H16.6666Z" fill="#FAFAFA"/>
</g>
<defs>
<clipPath id="clip0_57_385">
<rect width="20" height="20" fill="white"/>
</clipPath>
</defs>
</svg>
