<svg width="20" height="20" viewBox="0 0 20 20" fill="none" xmlns="http://www.w3.org/2000/svg">
<g clip-path="url(#clip0_67_676)">
<path fill-rule="evenodd" clip-rule="evenodd" d="M16.6663 0.833008C18.0471 0.833008 19.1663 1.9523 19.1663 3.33301V16.6663C19.1663 18.0471 18.0471 19.1663 16.6663 19.1663H3.33301C1.9523 19.1663 0.833008 18.0471 0.833008 16.6663V3.33301C0.833008 1.9523 1.9523 0.833008 3.33301 0.833008H16.6663ZM16.6663 2.49967C17.1266 2.49967 17.4997 2.87277 17.4997 3.33301V16.6663C17.4997 17.1266 17.1266 17.4997 16.6663 17.4997H12.4997V11.6663H14.2298C14.5885 11.6663 14.9069 11.4368 15.0204 11.0964L15.3896 9.98892C15.5245 9.58417 15.2233 9.16626 14.7967 9.16626H12.4997V7.49961C12.4997 7.08294 12.9163 6.66627 13.333 6.66627H14.9997C15.4599 6.66627 15.833 6.29317 15.833 5.83294V5.26128C15.833 4.9921 15.6611 4.75076 15.4008 4.68207C14.3084 4.3938 13.333 4.3938 13.333 4.3938C11.2497 4.3938 9.99967 5.83294 9.99967 7.08294V9.16626H8.33301C7.87277 9.16626 7.49967 9.53934 7.49967 9.99959V10.8329C7.49967 11.2932 7.87277 11.6663 8.33301 11.6663H9.99967V17.4997H3.33301C2.87277 17.4997 2.49967 17.1266 2.49967 16.6663V3.33301C2.49967 2.87277 2.87277 2.49967 3.33301 2.49967H16.6663Z" fill="#373737"/>
</g>
<defs>
<clipPath id="clip0_67_676">
<rect width="20" height="20" fill="white"/>
</clipPath>
</defs>
</svg>
