<svg width="20" height="20" viewBox="0 0 20 20" fill="none" xmlns="http://www.w3.org/2000/svg">
<g clip-path="url(#clip0_67_672)">
<path fill-rule="evenodd" clip-rule="evenodd" d="M10 15C12.7614 15 15 12.7614 15 10C15 7.23857 12.7614 5 10 5C7.23857 5 5 7.23857 5 10C5 12.7614 7.23857 15 10 15ZM10 13.3333C11.8409 13.3333 13.3333 11.8409 13.3333 10C13.3333 8.15905 11.8409 6.66667 10 6.66667C8.15905 6.66667 6.66667 8.15905 6.66667 10C6.66667 11.8409 8.15905 13.3333 10 13.3333Z" fill="#373737"/>
<path d="M15.0003 4.16699C14.5401 4.16699 14.167 4.54009 14.167 5.00033C14.167 5.46056 14.5401 5.83366 15.0003 5.83366C15.4606 5.83366 15.8337 5.46056 15.8337 5.00033C15.8337 4.54009 15.4606 4.16699 15.0003 4.16699Z" fill="#373737"/>
<path fill-rule="evenodd" clip-rule="evenodd" d="M1.54497 3.73005C1 4.79961 1 6.19974 1 9V11.3333C1 14.1336 1 15.5338 1.54497 16.6033C2.02433 17.5441 2.78923 18.309 3.73005 18.7883C4.79961 19.3333 6.19974 19.3333 9 19.3333H11.3333C14.1336 19.3333 15.5338 19.3333 16.6033 18.7883C17.5441 18.309 18.309 17.5441 18.7883 16.6033C19.3333 15.5338 19.3333 14.1336 19.3333 11.3333V9C19.3333 6.19974 19.3333 4.79961 18.7883 3.73005C18.309 2.78923 17.5441 2.02433 16.6033 1.54497C15.5338 1 14.1336 1 11.3333 1H9C6.19974 1 4.79961 1 3.73005 1.54497C2.78923 2.02433 2.02433 2.78923 1.54497 3.73005ZM11.3333 2.66667H9C7.57237 2.66667 6.60188 2.66797 5.85173 2.72925C5.12103 2.78895 4.74737 2.89716 4.4867 3.02998C3.85949 3.34956 3.34956 3.85949 3.02998 4.4867C2.89716 4.74737 2.78895 5.12103 2.72925 5.85173C2.66797 6.60188 2.66667 7.57237 2.66667 9V11.3333C2.66667 12.761 2.66797 13.7314 2.72925 14.4816C2.78895 15.2123 2.89716 15.586 3.02998 15.8467C3.34956 16.4738 3.85949 16.9838 4.4867 17.3033C4.74737 17.4362 5.12103 17.5444 5.85173 17.6041C6.60188 17.6653 7.57237 17.6667 9 17.6667H11.3333C12.761 17.6667 13.7314 17.6653 14.4816 17.6041C15.2123 17.5444 15.586 17.4362 15.8467 17.3033C16.4738 16.9838 16.9838 16.4738 17.3033 15.8467C17.4362 15.586 17.5444 15.2123 17.6041 14.4816C17.6653 13.7314 17.6667 12.761 17.6667 11.3333V9C17.6667 7.57237 17.6653 6.60188 17.6041 5.85173C17.5444 5.12103 17.4362 4.74737 17.3033 4.4867C16.9838 3.85949 16.4738 3.34956 15.8467 3.02998C15.586 2.89716 15.2123 2.78895 14.4816 2.72925C13.7314 2.66797 12.761 2.66667 11.3333 2.66667Z" fill="#373737"/>
</g>
<defs>
<clipPath id="clip0_67_672">
<rect width="20" height="20" fill="white"/>
</clipPath>
</defs>
</svg>
