<svg width="20" height="20" viewBox="0 0 20 20" fill="none" xmlns="http://www.w3.org/2000/svg">
<path fill-rule="evenodd" clip-rule="evenodd" d="M18.3309 10.0003C18.3309 14.6027 14.5999 18.3337 9.99753 18.3337C5.39515 18.3337 1.66418 14.6027 1.66418 10.0003C1.66418 5.39795 5.39515 1.66699 9.99753 1.66699C14.5999 1.66699 18.3309 5.39795 18.3309 10.0003ZM10.2961 7.81903C9.48561 8.15616 7.86566 8.85391 5.43633 9.91232C5.04184 10.0692 4.83519 10.2227 4.81638 10.3727C4.78458 10.6264 5.10218 10.7262 5.53465 10.8622C5.59348 10.8807 5.65443 10.8999 5.71691 10.9202C6.1424 11.0585 6.71475 11.2203 7.01229 11.2267C7.28219 11.2326 7.58343 11.1213 7.91601 10.8929C10.1858 9.36074 11.3575 8.58633 11.431 8.56958C11.4829 8.55783 11.5549 8.54299 11.6036 8.58633C11.6524 8.62966 11.6475 8.71166 11.6424 8.73366C11.6109 8.86782 10.3643 10.0268 9.71911 10.6266C9.51803 10.8136 9.37536 10.9462 9.34619 10.9765C9.28086 11.0443 9.21428 11.1085 9.15028 11.1702C8.75503 11.5512 8.45853 11.837 9.16669 12.3037C9.50694 12.5279 9.77928 12.7133 10.0509 12.8983C10.3476 13.1004 10.6435 13.3019 11.0264 13.5529C11.1239 13.6168 11.2171 13.6832 11.3079 13.7479C11.6531 13.9941 11.9633 14.2152 12.3465 14.1799C12.5692 14.1595 12.7992 13.9501 12.916 13.3256C13.1921 11.8497 13.7348 8.65199 13.8602 7.33433C13.8712 7.21889 13.8574 7.07114 13.8462 7.00628C13.8351 6.94143 13.8119 6.84901 13.7276 6.7806C13.6278 6.69958 13.4736 6.6825 13.4047 6.68366C13.0913 6.68924 12.6104 6.85645 10.2961 7.81903Z" stroke="#FAFAFA" stroke-linejoin="round"/>
</svg>
