<svg width="20" height="20" viewBox="0 0 20 20" fill="none" xmlns="http://www.w3.org/2000/svg">
<path fill-rule="evenodd" clip-rule="evenodd" d="M18.3307 10.0003C18.3307 14.6027 14.5997 18.3337 9.9974 18.3337C5.39503 18.3337 1.66406 14.6027 1.66406 10.0003C1.66406 5.39795 5.39503 1.66699 9.9974 1.66699C14.5997 1.66699 18.3307 5.39795 18.3307 10.0003ZM10.296 7.81903C9.48549 8.15616 7.86554 8.85391 5.4362 9.91232C5.04172 10.0692 4.83507 10.2227 4.81625 10.3727C4.78446 10.6264 5.10205 10.7262 5.53453 10.8622C5.59335 10.8807 5.6543 10.8999 5.71679 10.9202C6.14228 11.0585 6.71463 11.2203 7.01217 11.2267C7.28207 11.2326 7.58331 11.1213 7.91589 10.8929C10.1857 9.36074 11.3574 8.58633 11.4309 8.56958C11.4828 8.55783 11.5547 8.54299 11.6035 8.58633C11.6522 8.62966 11.6474 8.71166 11.6422 8.73366C11.6108 8.86782 10.3642 10.0268 9.71899 10.6266C9.5179 10.8136 9.37524 10.9462 9.34607 10.9765C9.28074 11.0443 9.21415 11.1085 9.15015 11.1702C8.7549 11.5512 8.4584 11.837 9.16657 12.3037C9.50682 12.5279 9.77915 12.7133 10.0508 12.8983C10.3475 13.1004 10.6434 13.3019 11.0263 13.5529C11.1238 13.6168 11.217 13.6832 11.3077 13.7479C11.653 13.9941 11.9632 14.2152 12.3464 14.1799C12.5691 14.1595 12.7991 13.9501 12.9159 13.3256C13.192 11.8497 13.7347 8.65199 13.8601 7.33433C13.8711 7.21889 13.8572 7.07114 13.8461 7.00628C13.835 6.94143 13.8118 6.84901 13.7275 6.7806C13.6277 6.69958 13.4735 6.6825 13.4046 6.68366C13.0912 6.68924 12.6102 6.85645 10.296 7.81903Z" stroke="#373737" stroke-linejoin="round"/>
</svg>
